<mxfile host="app.diagrams.net" modified="2022-07-13T11:44:09.572Z" agent="5.0 (X11; Linux x86_64) AppleWebKit/537.36 (KHTML, like Gecko) Chrome/103.0.0.0 Safari/537.36" etag="n0Ow-gzQEAiH0Y0rmgxq" version="20.1.1" type="github">
  <diagram id="j2WRvLuPKxwcn-YbGfsp" name="Page-1">
    <mxGraphModel dx="1182" dy="802" grid="1" gridSize="10" guides="1" tooltips="1" connect="1" arrows="1" fold="1" page="1" pageScale="1" pageWidth="850" pageHeight="1100" math="0" shadow="0">
      <root>
        <mxCell id="0" />
        <mxCell id="1" parent="0" />
        <mxCell id="2CmBL4BmoFO5IgfqVhkc-2" value="Origin" style="rhombus;whiteSpace=wrap;html=1;fontSize=12;" parent="1" vertex="1">
          <mxGeometry x="450" y="50" width="60" height="60" as="geometry" />
        </mxCell>
        <mxCell id="2CmBL4BmoFO5IgfqVhkc-3" value="4" style="ellipse;whiteSpace=wrap;html=1;fontSize=12;" parent="1" vertex="1">
          <mxGeometry x="770" y="260" width="60" height="40" as="geometry" />
        </mxCell>
        <mxCell id="2CmBL4BmoFO5IgfqVhkc-5" value="2" style="ellipse;whiteSpace=wrap;html=1;fontSize=12;" parent="1" vertex="1">
          <mxGeometry x="650" y="260" width="60" height="40" as="geometry" />
        </mxCell>
        <mxCell id="2CmBL4BmoFO5IgfqVhkc-9" value="Destination" style="rhombus;whiteSpace=wrap;html=1;fontSize=12;" parent="1" vertex="1">
          <mxGeometry x="510" y="250" width="100" height="60" as="geometry" />
        </mxCell>
        <mxCell id="2CmBL4BmoFO5IgfqVhkc-10" value="1" style="ellipse;whiteSpace=wrap;html=1;fontSize=12;" parent="1" vertex="1">
          <mxGeometry x="590" y="420" width="60" height="40" as="geometry" />
        </mxCell>
        <mxCell id="2CmBL4BmoFO5IgfqVhkc-11" value="3" style="ellipse;whiteSpace=wrap;html=1;fontSize=12;" parent="1" vertex="1">
          <mxGeometry x="470" y="420" width="60" height="40" as="geometry" />
        </mxCell>
        <mxCell id="2CmBL4BmoFO5IgfqVhkc-12" value="Destination" style="rhombus;whiteSpace=wrap;html=1;fontSize=12;" parent="1" vertex="1">
          <mxGeometry x="150" y="250" width="100" height="60" as="geometry" />
        </mxCell>
        <mxCell id="2CmBL4BmoFO5IgfqVhkc-13" value="" style="endArrow=classic;html=1;fontSize=12;exitX=0.5;exitY=1;exitDx=0;exitDy=0;entryX=0.5;entryY=0;entryDx=0;entryDy=0;startArrow=none;" parent="1" source="dN_72-f_CMdYvBx1fxVc-7" target="2CmBL4BmoFO5IgfqVhkc-3" edge="1">
          <mxGeometry width="50" height="50" relative="1" as="geometry">
            <mxPoint x="400" y="400" as="sourcePoint" />
            <mxPoint x="450" y="350" as="targetPoint" />
          </mxGeometry>
        </mxCell>
        <mxCell id="2CmBL4BmoFO5IgfqVhkc-14" value="" style="endArrow=classic;html=1;fontSize=12;exitX=0.5;exitY=1;exitDx=0;exitDy=0;entryX=0.5;entryY=0;entryDx=0;entryDy=0;startArrow=none;" parent="1" source="dN_72-f_CMdYvBx1fxVc-6" target="2CmBL4BmoFO5IgfqVhkc-5" edge="1">
          <mxGeometry width="50" height="50" relative="1" as="geometry">
            <mxPoint x="400" y="400" as="sourcePoint" />
            <mxPoint x="450" y="350" as="targetPoint" />
          </mxGeometry>
        </mxCell>
        <mxCell id="2CmBL4BmoFO5IgfqVhkc-15" value="" style="endArrow=classic;html=1;fontSize=12;exitX=0.5;exitY=1;exitDx=0;exitDy=0;entryX=0.5;entryY=0;entryDx=0;entryDy=0;startArrow=none;" parent="1" source="dN_72-f_CMdYvBx1fxVc-8" target="2CmBL4BmoFO5IgfqVhkc-9" edge="1">
          <mxGeometry width="50" height="50" relative="1" as="geometry">
            <mxPoint x="400" y="400" as="sourcePoint" />
            <mxPoint x="420" y="210" as="targetPoint" />
          </mxGeometry>
        </mxCell>
        <mxCell id="2CmBL4BmoFO5IgfqVhkc-16" value="" style="endArrow=classic;html=1;fontSize=12;entryX=0.5;entryY=0;entryDx=0;entryDy=0;startArrow=none;" parent="1" source="dN_72-f_CMdYvBx1fxVc-9" target="2CmBL4BmoFO5IgfqVhkc-12" edge="1">
          <mxGeometry width="50" height="50" relative="1" as="geometry">
            <mxPoint x="480" y="110" as="sourcePoint" />
            <mxPoint x="450" y="350" as="targetPoint" />
          </mxGeometry>
        </mxCell>
        <mxCell id="2CmBL4BmoFO5IgfqVhkc-17" value="3" style="ellipse;whiteSpace=wrap;html=1;fontSize=12;" parent="1" vertex="1">
          <mxGeometry x="170" y="420" width="60" height="40" as="geometry" />
        </mxCell>
        <mxCell id="2CmBL4BmoFO5IgfqVhkc-18" value="1" style="ellipse;whiteSpace=wrap;html=1;fontSize=12;" parent="1" vertex="1">
          <mxGeometry x="290" y="420" width="60" height="40" as="geometry" />
        </mxCell>
        <mxCell id="2CmBL4BmoFO5IgfqVhkc-19" value="2" style="ellipse;whiteSpace=wrap;html=1;fontSize=12;" parent="1" vertex="1">
          <mxGeometry x="50" y="420" width="60" height="40" as="geometry" />
        </mxCell>
        <mxCell id="2CmBL4BmoFO5IgfqVhkc-20" value="" style="endArrow=classic;html=1;fontSize=12;exitX=0.5;exitY=1;exitDx=0;exitDy=0;entryX=0.5;entryY=0;entryDx=0;entryDy=0;startArrow=none;" parent="1" source="2CmBL4BmoFO5IgfqVhkc-40" target="2CmBL4BmoFO5IgfqVhkc-18" edge="1">
          <mxGeometry width="50" height="50" relative="1" as="geometry">
            <mxPoint x="240" y="290" as="sourcePoint" />
            <mxPoint x="290" y="240" as="targetPoint" />
          </mxGeometry>
        </mxCell>
        <mxCell id="2CmBL4BmoFO5IgfqVhkc-21" value="" style="endArrow=classic;html=1;fontSize=12;exitX=0.5;exitY=1;exitDx=0;exitDy=0;entryX=0.5;entryY=0;entryDx=0;entryDy=0;startArrow=none;" parent="1" source="2CmBL4BmoFO5IgfqVhkc-42" target="2CmBL4BmoFO5IgfqVhkc-17" edge="1">
          <mxGeometry width="50" height="50" relative="1" as="geometry">
            <mxPoint x="150" y="390" as="sourcePoint" />
            <mxPoint x="200" y="330" as="targetPoint" />
          </mxGeometry>
        </mxCell>
        <mxCell id="2CmBL4BmoFO5IgfqVhkc-22" value="" style="endArrow=classic;html=1;fontSize=12;entryX=0.5;entryY=0;entryDx=0;entryDy=0;exitX=0.5;exitY=1;exitDx=0;exitDy=0;startArrow=none;" parent="1" source="2CmBL4BmoFO5IgfqVhkc-35" target="2CmBL4BmoFO5IgfqVhkc-19" edge="1">
          <mxGeometry width="50" height="50" relative="1" as="geometry">
            <mxPoint x="420" y="420" as="sourcePoint" />
            <mxPoint x="470" y="370" as="targetPoint" />
          </mxGeometry>
        </mxCell>
        <mxCell id="2CmBL4BmoFO5IgfqVhkc-23" value="" style="endArrow=classic;html=1;fontSize=12;entryX=0.5;entryY=0;entryDx=0;entryDy=0;exitX=0.5;exitY=1;exitDx=0;exitDy=0;startArrow=none;" parent="1" source="dN_72-f_CMdYvBx1fxVc-2" target="2CmBL4BmoFO5IgfqVhkc-11" edge="1">
          <mxGeometry width="50" height="50" relative="1" as="geometry">
            <mxPoint x="430" y="430" as="sourcePoint" />
            <mxPoint x="480" y="380" as="targetPoint" />
          </mxGeometry>
        </mxCell>
        <mxCell id="2CmBL4BmoFO5IgfqVhkc-24" value="" style="endArrow=classic;html=1;fontSize=12;entryX=0.5;entryY=0;entryDx=0;entryDy=0;exitX=0.5;exitY=1;exitDx=0;exitDy=0;startArrow=none;" parent="1" source="dN_72-f_CMdYvBx1fxVc-4" target="2CmBL4BmoFO5IgfqVhkc-10" edge="1">
          <mxGeometry width="50" height="50" relative="1" as="geometry">
            <mxPoint x="560" y="270" as="sourcePoint" />
            <mxPoint x="490" y="390" as="targetPoint" />
          </mxGeometry>
        </mxCell>
        <mxCell id="2CmBL4BmoFO5IgfqVhkc-35" value="Another Card" style="text;html=1;resizable=0;autosize=1;align=center;verticalAlign=middle;points=[];fillColor=none;rounded=0;fontSize=12;strokeColor=#000000;" parent="1" vertex="1">
          <mxGeometry x="30" y="350" width="100" height="20" as="geometry" />
        </mxCell>
        <mxCell id="2CmBL4BmoFO5IgfqVhkc-36" value="" style="endArrow=none;html=1;fontSize=12;entryX=0.5;entryY=0;entryDx=0;entryDy=0;exitX=0.5;exitY=1;exitDx=0;exitDy=0;" parent="1" source="2CmBL4BmoFO5IgfqVhkc-12" target="2CmBL4BmoFO5IgfqVhkc-35" edge="1">
          <mxGeometry width="50" height="50" relative="1" as="geometry">
            <mxPoint x="200" y="270" as="sourcePoint" />
            <mxPoint x="80" y="340" as="targetPoint" />
          </mxGeometry>
        </mxCell>
        <mxCell id="2CmBL4BmoFO5IgfqVhkc-40" value="Mellat Destination" style="text;html=1;resizable=0;autosize=1;align=center;verticalAlign=middle;points=[];fillColor=none;rounded=0;fontSize=12;strokeColor=#000000;" parent="1" vertex="1">
          <mxGeometry x="260" y="350" width="120" height="20" as="geometry" />
        </mxCell>
        <mxCell id="2CmBL4BmoFO5IgfqVhkc-41" value="" style="endArrow=none;html=1;fontSize=12;exitX=0.5;exitY=1;exitDx=0;exitDy=0;entryX=0.5;entryY=0;entryDx=0;entryDy=0;" parent="1" source="2CmBL4BmoFO5IgfqVhkc-12" target="2CmBL4BmoFO5IgfqVhkc-40" edge="1">
          <mxGeometry width="50" height="50" relative="1" as="geometry">
            <mxPoint x="200" y="310" as="sourcePoint" />
            <mxPoint x="320" y="420" as="targetPoint" />
          </mxGeometry>
        </mxCell>
        <mxCell id="2CmBL4BmoFO5IgfqVhkc-42" value="Sheba" style="text;html=1;resizable=0;autosize=1;align=center;verticalAlign=middle;points=[];fillColor=none;rounded=0;fontSize=12;strokeColor=#000000;" parent="1" vertex="1">
          <mxGeometry x="175" y="350" width="50" height="20" as="geometry" />
        </mxCell>
        <mxCell id="2CmBL4BmoFO5IgfqVhkc-44" value="" style="endArrow=none;html=1;fontSize=12;exitX=0.5;exitY=1;exitDx=0;exitDy=0;entryX=0.5;entryY=0;entryDx=0;entryDy=0;" parent="1" source="2CmBL4BmoFO5IgfqVhkc-12" target="2CmBL4BmoFO5IgfqVhkc-42" edge="1">
          <mxGeometry width="50" height="50" relative="1" as="geometry">
            <mxPoint x="200" y="310" as="sourcePoint" />
            <mxPoint x="200" y="420" as="targetPoint" />
          </mxGeometry>
        </mxCell>
        <mxCell id="dN_72-f_CMdYvBx1fxVc-2" value="Sheba" style="text;html=1;resizable=0;autosize=1;align=center;verticalAlign=middle;points=[];fillColor=none;rounded=0;fontSize=12;strokeColor=#000000;" parent="1" vertex="1">
          <mxGeometry x="475" y="350" width="50" height="20" as="geometry" />
        </mxCell>
        <mxCell id="dN_72-f_CMdYvBx1fxVc-3" value="" style="endArrow=none;html=1;fontSize=12;entryX=0.5;entryY=0;entryDx=0;entryDy=0;exitX=0.5;exitY=1;exitDx=0;exitDy=0;" parent="1" source="2CmBL4BmoFO5IgfqVhkc-9" target="dN_72-f_CMdYvBx1fxVc-2" edge="1">
          <mxGeometry width="50" height="50" relative="1" as="geometry">
            <mxPoint x="560" y="310" as="sourcePoint" />
            <mxPoint x="500" y="420" as="targetPoint" />
          </mxGeometry>
        </mxCell>
        <mxCell id="dN_72-f_CMdYvBx1fxVc-4" value="Mellat Desination" style="text;html=1;resizable=0;autosize=1;align=center;verticalAlign=middle;points=[];fillColor=none;rounded=0;fontSize=12;strokeColor=#000000;" parent="1" vertex="1">
          <mxGeometry x="560" y="350" width="120" height="20" as="geometry" />
        </mxCell>
        <mxCell id="dN_72-f_CMdYvBx1fxVc-5" value="" style="endArrow=none;html=1;fontSize=12;entryX=0.5;entryY=0;entryDx=0;entryDy=0;exitX=0.5;exitY=1;exitDx=0;exitDy=0;" parent="1" source="2CmBL4BmoFO5IgfqVhkc-9" target="dN_72-f_CMdYvBx1fxVc-4" edge="1">
          <mxGeometry width="50" height="50" relative="1" as="geometry">
            <mxPoint x="560" y="310" as="sourcePoint" />
            <mxPoint x="620" y="420" as="targetPoint" />
          </mxGeometry>
        </mxCell>
        <mxCell id="dN_72-f_CMdYvBx1fxVc-9" value="Card | Account" style="text;html=1;resizable=0;autosize=1;align=center;verticalAlign=middle;points=[];fillColor=none;rounded=0;fontSize=12;strokeColor=#000000;" parent="1" vertex="1">
          <mxGeometry x="150" y="190" width="100" height="20" as="geometry" />
        </mxCell>
        <mxCell id="dN_72-f_CMdYvBx1fxVc-10" value="" style="endArrow=none;html=1;fontSize=12;entryX=0.5;entryY=0;entryDx=0;entryDy=0;" parent="1" target="dN_72-f_CMdYvBx1fxVc-9" edge="1">
          <mxGeometry width="50" height="50" relative="1" as="geometry">
            <mxPoint x="480" y="110" as="sourcePoint" />
            <mxPoint x="200" y="250" as="targetPoint" />
          </mxGeometry>
        </mxCell>
        <mxCell id="dN_72-f_CMdYvBx1fxVc-8" value="Account" style="text;html=1;resizable=0;autosize=1;align=center;verticalAlign=middle;points=[];fillColor=none;rounded=0;fontSize=12;strokeColor=#000000;" parent="1" vertex="1">
          <mxGeometry x="530" y="190" width="60" height="20" as="geometry" />
        </mxCell>
        <mxCell id="dN_72-f_CMdYvBx1fxVc-11" value="" style="endArrow=none;html=1;fontSize=12;exitX=0.5;exitY=1;exitDx=0;exitDy=0;entryX=0.5;entryY=0;entryDx=0;entryDy=0;" parent="1" source="2CmBL4BmoFO5IgfqVhkc-2" target="dN_72-f_CMdYvBx1fxVc-8" edge="1">
          <mxGeometry width="50" height="50" relative="1" as="geometry">
            <mxPoint x="480" y="110" as="sourcePoint" />
            <mxPoint x="560" y="250" as="targetPoint" />
          </mxGeometry>
        </mxCell>
        <mxCell id="dN_72-f_CMdYvBx1fxVc-7" value="Wallet" style="text;html=1;resizable=0;autosize=1;align=center;verticalAlign=middle;points=[];fillColor=none;rounded=0;fontSize=12;strokeColor=#000000;" parent="1" vertex="1">
          <mxGeometry x="775" y="190" width="50" height="20" as="geometry" />
        </mxCell>
        <mxCell id="dN_72-f_CMdYvBx1fxVc-12" value="" style="endArrow=none;html=1;fontSize=12;exitX=0.5;exitY=1;exitDx=0;exitDy=0;entryX=0.5;entryY=0;entryDx=0;entryDy=0;" parent="1" source="2CmBL4BmoFO5IgfqVhkc-2" target="dN_72-f_CMdYvBx1fxVc-7" edge="1">
          <mxGeometry width="50" height="50" relative="1" as="geometry">
            <mxPoint x="480" y="110" as="sourcePoint" />
            <mxPoint x="800" y="260" as="targetPoint" />
          </mxGeometry>
        </mxCell>
        <mxCell id="dN_72-f_CMdYvBx1fxVc-6" value="Card" style="text;html=1;resizable=0;autosize=1;align=center;verticalAlign=middle;points=[];fillColor=none;rounded=0;fontSize=12;strokeColor=#000000;" parent="1" vertex="1">
          <mxGeometry x="660" y="190" width="40" height="20" as="geometry" />
        </mxCell>
        <mxCell id="dN_72-f_CMdYvBx1fxVc-13" value="" style="endArrow=none;html=1;fontSize=12;exitX=0.5;exitY=1;exitDx=0;exitDy=0;entryX=0.5;entryY=0;entryDx=0;entryDy=0;" parent="1" source="2CmBL4BmoFO5IgfqVhkc-2" target="dN_72-f_CMdYvBx1fxVc-6" edge="1">
          <mxGeometry width="50" height="50" relative="1" as="geometry">
            <mxPoint x="480" y="110" as="sourcePoint" />
            <mxPoint x="680" y="260" as="targetPoint" />
          </mxGeometry>
        </mxCell>
        <mxCell id="9VN3aDH7O9fTKR7BMBrO-1" value="&lt;h1&gt;&lt;font color=&quot;#ff3333&quot;&gt;مقصد ملتی&lt;/font&gt;&lt;/h1&gt;&lt;p&gt;&lt;font style=&quot;font-size: 15px&quot;&gt;حساب یا کارت پیش شماره ملت و بن کارت نباشد&lt;/font&gt;&lt;/p&gt;" style="text;html=1;fillColor=none;spacing=5;spacingTop=-20;whiteSpace=wrap;overflow=hidden;rounded=0;align=right;fontFamily=Comic Sans MS;strokeColor=#000000;" parent="1" vertex="1">
          <mxGeometry x="640" y="520" width="200" height="160" as="geometry" />
        </mxCell>
        <mxCell id="9VN3aDH7O9fTKR7BMBrO-2" value="انواع انتقال" style="shape=table;startSize=30;container=1;collapsible=0;childLayout=tableLayout;fixedRows=1;rowLines=0;fontStyle=1;align=center;pointerEvents=1;fontSize=15;fontFamily=Comic Sans MS;fontColor=#FF3333;" parent="1" vertex="1">
          <mxGeometry x="400" y="520" width="200" height="160" as="geometry" />
        </mxCell>
        <mxCell id="9VN3aDH7O9fTKR7BMBrO-6" value="" style="shape=partialRectangle;html=1;whiteSpace=wrap;collapsible=0;dropTarget=0;pointerEvents=1;fillColor=none;top=0;left=0;bottom=0;right=0;points=[[0,0.5],[1,0.5]];portConstraint=eastwest;" parent="9VN3aDH7O9fTKR7BMBrO-2" vertex="1">
          <mxGeometry y="30" width="200" height="30" as="geometry" />
        </mxCell>
        <mxCell id="9VN3aDH7O9fTKR7BMBrO-7" value="1" style="shape=partialRectangle;html=1;whiteSpace=wrap;connectable=0;fillColor=none;top=0;left=0;bottom=0;right=0;overflow=hidden;pointerEvents=1;align=center;" parent="9VN3aDH7O9fTKR7BMBrO-6" vertex="1">
          <mxGeometry width="45" height="30" as="geometry">
            <mxRectangle width="45" height="30" as="alternateBounds" />
          </mxGeometry>
        </mxCell>
        <mxCell id="9VN3aDH7O9fTKR7BMBrO-8" value="انتقال ملتی" style="shape=partialRectangle;html=1;whiteSpace=wrap;connectable=0;fillColor=none;top=0;left=0;bottom=0;right=0;align=left;spacingLeft=6;overflow=hidden;pointerEvents=1;fontSize=15;" parent="9VN3aDH7O9fTKR7BMBrO-6" vertex="1">
          <mxGeometry x="45" width="155" height="30" as="geometry">
            <mxRectangle width="155" height="30" as="alternateBounds" />
          </mxGeometry>
        </mxCell>
        <mxCell id="9VN3aDH7O9fTKR7BMBrO-15" value="" style="shape=partialRectangle;html=1;whiteSpace=wrap;collapsible=0;dropTarget=0;pointerEvents=1;fillColor=none;top=0;left=0;bottom=0;right=0;points=[[0,0.5],[1,0.5]];portConstraint=eastwest;" parent="9VN3aDH7O9fTKR7BMBrO-2" vertex="1">
          <mxGeometry y="60" width="200" height="30" as="geometry" />
        </mxCell>
        <mxCell id="9VN3aDH7O9fTKR7BMBrO-16" value="2" style="shape=partialRectangle;html=1;whiteSpace=wrap;connectable=0;fillColor=none;top=0;left=0;bottom=0;right=0;overflow=hidden;pointerEvents=1;" parent="9VN3aDH7O9fTKR7BMBrO-15" vertex="1">
          <mxGeometry width="45" height="30" as="geometry">
            <mxRectangle width="45" height="30" as="alternateBounds" />
          </mxGeometry>
        </mxCell>
        <mxCell id="9VN3aDH7O9fTKR7BMBrO-17" value="کارت به کارت" style="shape=partialRectangle;html=1;whiteSpace=wrap;connectable=0;fillColor=none;top=0;left=0;bottom=0;right=0;align=left;spacingLeft=6;overflow=hidden;pointerEvents=1;fontSize=15;" parent="9VN3aDH7O9fTKR7BMBrO-15" vertex="1">
          <mxGeometry x="45" width="155" height="30" as="geometry">
            <mxRectangle width="155" height="30" as="alternateBounds" />
          </mxGeometry>
        </mxCell>
        <mxCell id="9VN3aDH7O9fTKR7BMBrO-18" value="" style="shape=partialRectangle;html=1;whiteSpace=wrap;collapsible=0;dropTarget=0;pointerEvents=1;fillColor=none;top=0;left=0;bottom=0;right=0;points=[[0,0.5],[1,0.5]];portConstraint=eastwest;" parent="9VN3aDH7O9fTKR7BMBrO-2" vertex="1">
          <mxGeometry y="90" width="200" height="30" as="geometry" />
        </mxCell>
        <mxCell id="9VN3aDH7O9fTKR7BMBrO-19" value="3" style="shape=partialRectangle;html=1;whiteSpace=wrap;connectable=0;fillColor=none;top=0;left=0;bottom=0;right=0;overflow=hidden;pointerEvents=1;" parent="9VN3aDH7O9fTKR7BMBrO-18" vertex="1">
          <mxGeometry width="45" height="30" as="geometry">
            <mxRectangle width="45" height="30" as="alternateBounds" />
          </mxGeometry>
        </mxCell>
        <mxCell id="9VN3aDH7O9fTKR7BMBrO-20" value="انتقال پایا" style="shape=partialRectangle;html=1;whiteSpace=wrap;connectable=0;fillColor=none;top=0;left=0;bottom=0;right=0;align=left;spacingLeft=6;overflow=hidden;pointerEvents=1;fontSize=15;" parent="9VN3aDH7O9fTKR7BMBrO-18" vertex="1">
          <mxGeometry x="45" width="155" height="30" as="geometry">
            <mxRectangle width="155" height="30" as="alternateBounds" />
          </mxGeometry>
        </mxCell>
        <mxCell id="9VN3aDH7O9fTKR7BMBrO-21" value="" style="shape=partialRectangle;html=1;whiteSpace=wrap;collapsible=0;dropTarget=0;pointerEvents=1;fillColor=none;top=0;left=0;bottom=0;right=0;points=[[0,0.5],[1,0.5]];portConstraint=eastwest;" parent="9VN3aDH7O9fTKR7BMBrO-2" vertex="1">
          <mxGeometry y="120" width="200" height="30" as="geometry" />
        </mxCell>
        <mxCell id="9VN3aDH7O9fTKR7BMBrO-22" value="4" style="shape=partialRectangle;html=1;whiteSpace=wrap;connectable=0;fillColor=none;top=0;left=0;bottom=0;right=0;overflow=hidden;pointerEvents=1;" parent="9VN3aDH7O9fTKR7BMBrO-21" vertex="1">
          <mxGeometry width="45" height="30" as="geometry">
            <mxRectangle width="45" height="30" as="alternateBounds" />
          </mxGeometry>
        </mxCell>
        <mxCell id="9VN3aDH7O9fTKR7BMBrO-23" value="انتقال کیف به کیف" style="shape=partialRectangle;html=1;whiteSpace=wrap;connectable=0;fillColor=none;top=0;left=0;bottom=0;right=0;align=left;spacingLeft=6;overflow=hidden;pointerEvents=1;fontSize=15;" parent="9VN3aDH7O9fTKR7BMBrO-21" vertex="1">
          <mxGeometry x="45" width="155" height="30" as="geometry">
            <mxRectangle width="155" height="30" as="alternateBounds" />
          </mxGeometry>
        </mxCell>
        <mxCell id="PQxyo848bkuqOF69O3FE-1" value="Hi There!" style="shape=umlActor;verticalLabelPosition=bottom;verticalAlign=top;html=1;outlineConnect=0;" vertex="1" parent="1">
          <mxGeometry x="760" y="20" width="30" height="60" as="geometry" />
        </mxCell>
      </root>
    </mxGraphModel>
  </diagram>
</mxfile>
